<svg width="210" height="200" viewBox="0 0 210 200" fill="none" xmlns="http://www.w3.org/2000/svg">
<line x1="82.8581" y1="171" x2="127.858" y2="171" stroke="black" stroke-width="10" stroke-linecap="round"/>
<g filter="url(#filter0_d_2014_97)">
<path d="M20.8581 66C20.8581 52.1929 32.0509 41 45.8581 41H164.858C178.665 41 189.858 52.1929 189.858 66V125C189.858 138.807 178.665 150 164.858 150H45.8581C32.0509 150 20.8581 138.807 20.8581 125V66Z" fill="url(#paint0_linear_2014_97)"/>
<path d="M45.8581 39.125C45.8581 40.375 45.8581 41.625 45.8581 42.875C54.4095 43.0139 62.9609 43.1481 71.5123 43.2778C102.628 43.7494 133.743 44.1598 164.858 44.5089C176.312 44.3861 186.353 54.7863 185.941 66C185.753 85.6667 185.59 105.333 185.45 125C185.621 135.97 175.683 145.692 164.858 145.347C125.191 145.132 85.5247 145.017 45.8581 145.002C43.3707 145.002 40.9087 144.543 38.6083 143.647C31.0941 140.805 25.697 133.126 25.6871 125C25.463 105.333 25.0185 85.6667 24.3536 66C24.1937 62.081 25.1087 58.1095 27.0366 54.602C30.6197 47.9537 37.9017 43.2273 45.8581 42.875C45.8581 41.625 45.8581 40.375 45.8581 39.125C36.6424 38.6104 27.1215 43.4095 21.9077 51.4884C19.1095 55.7373 17.5047 60.8319 17.3625 66C16.6976 85.6667 16.2531 105.333 16.029 125C15.7496 137.009 23.6786 148.71 34.9819 152.966C38.4413 154.315 42.1598 155.002 45.8581 154.998C85.5247 154.983 125.191 154.868 164.858 154.653C180.666 154.955 194.742 140.664 194.266 125C194.127 105.333 193.963 85.6667 193.775 66C194.01 50.5806 180.038 36.9663 164.858 37.4911C133.743 37.8402 102.628 38.2506 71.5123 38.7222C62.9609 38.8519 54.4095 38.9861 45.8581 39.125ZM45.8581 42.875V39.125V42.875Z" fill="black"/>
</g>
<path d="M157.858 51.9999C184.671 57.2394 148.039 108.575 178.858 148L104.858 148L104.857 148C67.8574 148 35.858 148 31.3581 142.5C16.6856 124.567 62.0444 81.2343 83.8581 78.5C105.672 75.7657 97.7722 103.893 117.358 101.5C139.154 98.8367 127.509 46.0695 157.858 51.9999Z" fill="url(#paint1_linear_2014_97)"/>
<g filter="url(#filter1_dd_2014_97)">
<path d="M60.3581 85L61.3684 88.4549H64.6378L61.9928 90.5902L63.0031 94.0451L60.3581 91.9098L57.713 94.0451L58.7233 90.5902L56.0783 88.4549H59.3477L60.3581 85Z" fill="url(#paint2_linear_2014_97)"/>
</g>
<path d="M48.817 122.183H53.5397L49.7194 125.386L51.1784 130.567L47.3581 127.364L43.5377 130.567L44.9967 125.386L41.1764 122.183H45.8991L47.3581 117L48.817 122.183Z" fill="url(#paint3_linear_2014_97)"/>
<path d="M48.817 122.183H53.5397L49.7194 125.386L51.1784 130.567L47.3581 127.364L43.5377 130.567L44.9967 125.386L41.1764 122.183H45.8991L47.3581 117L48.817 122.183Z" stroke="black"/>
<g filter="url(#filter2_d_2014_97)">
<path d="M137.858 54L139.654 60.2188H145.467L140.764 64.0623L142.56 70.2812L137.858 66.4377L133.156 70.2812L134.952 64.0623L130.25 60.2188H136.062L137.858 54Z" fill="url(#paint4_linear_2014_97)"/>
</g>
<g filter="url(#filter3_i_2014_97)">
<path d="M44.8581 26.125C44.8581 27.375 44.8581 28.625 44.8581 29.875C54.8803 30.0139 64.9026 30.1481 74.9249 30.2778C104.903 30.6655 134.88 31.0118 164.858 31.3167C184.408 31.07 201.62 48.7904 200.963 68C200.812 86.3333 200.676 104.667 200.556 123C200.873 142.018 183.669 158.913 164.858 158.347C124.858 158.162 84.8581 158.051 44.8581 158.014C35.9743 158.043 27.2091 154.533 20.7888 148.41C13.8653 141.896 9.76252 132.552 9.71201 123C9.54723 104.667 9.24303 86.3333 8.79941 68C8.48201 58.1294 12.4165 48.1271 19.5935 40.9683C26.1249 34.3622 35.2776 30.2538 44.8581 29.875C44.8581 28.625 44.8581 27.375 44.8581 26.125C34.3609 25.6551 23.5716 29.4346 15.4955 36.5858C6.63016 44.2957 1.11029 55.9866 0.916698 68C0.473076 86.3333 0.168879 104.667 0.00410461 123C-0.167061 135.151 5.02272 147.33 13.9106 155.669C22.1344 163.525 33.4854 168.051 44.8581 167.986C84.8581 167.949 124.858 167.838 164.858 167.653C188.66 168.123 209.879 146.595 209.16 123C209.04 104.667 208.904 86.3333 208.753 68C209.132 44.5967 187.921 23.8939 164.858 24.6833C134.88 24.9882 104.903 25.3345 74.9249 25.7222C64.9026 25.8519 54.8803 25.9861 44.8581 26.125ZM44.8581 29.875V26.125V29.875Z" fill="url(#paint5_linear_2014_97)"/>
</g>
<path d="M103.099 150.25C103.855 148.852 105.861 148.852 106.617 150.25L116.251 168.048C116.972 169.381 116.007 171 114.492 171H95.2244C93.7091 171 92.7442 169.381 93.4655 168.048L103.099 150.25Z" fill="black"/>
<defs>
<filter id="filter0_d_2014_97" x="12.0218" y="37.4763" width="186.256" height="125.522" filterUnits="userSpaceOnUse" color-interpolation-filters="sRGB">
<feFlood flood-opacity="0" result="BackgroundImageFix"/>
<feColorMatrix in="SourceAlpha" type="matrix" values="0 0 0 0 0 0 0 0 0 0 0 0 0 0 0 0 0 0 127 0" result="hardAlpha"/>
<feOffset dy="4"/>
<feGaussianBlur stdDeviation="2"/>
<feComposite in2="hardAlpha" operator="out"/>
<feColorMatrix type="matrix" values="0 0 0 0 0.519231 0 0 0 0 0.519231 0 0 0 0 0.519231 0 0 0 1 0"/>
<feBlend mode="normal" in2="BackgroundImageFix" result="effect1_dropShadow_2014_97"/>
<feBlend mode="normal" in="SourceGraphic" in2="effect1_dropShadow_2014_97" result="shape"/>
</filter>
<filter id="filter1_dd_2014_97" x="46.0783" y="75" width="28.5595" height="29.0452" filterUnits="userSpaceOnUse" color-interpolation-filters="sRGB">
<feFlood flood-opacity="0" result="BackgroundImageFix"/>
<feColorMatrix in="SourceAlpha" type="matrix" values="0 0 0 0 0 0 0 0 0 0 0 0 0 0 0 0 0 0 127 0" result="hardAlpha"/>
<feOffset/>
<feGaussianBlur stdDeviation="1.5"/>
<feComposite in2="hardAlpha" operator="out"/>
<feColorMatrix type="matrix" values="0 0 0 0 0.0302885 0 0 0 0 0.605769 0 0 0 0 0 0 0 0 1 0"/>
<feBlend mode="normal" in2="BackgroundImageFix" result="effect1_dropShadow_2014_97"/>
<feColorMatrix in="SourceAlpha" type="matrix" values="0 0 0 0 0 0 0 0 0 0 0 0 0 0 0 0 0 0 127 0" result="hardAlpha"/>
<feOffset/>
<feGaussianBlur stdDeviation="5"/>
<feComposite in2="hardAlpha" operator="out"/>
<feColorMatrix type="matrix" values="0 0 0 0 0 0 0 0 0 0 0 0 0 0 0 0 0 0 0.5 0"/>
<feBlend mode="normal" in2="effect1_dropShadow_2014_97" result="effect2_dropShadow_2014_97"/>
<feBlend mode="normal" in="SourceGraphic" in2="effect2_dropShadow_2014_97" result="shape"/>
</filter>
<filter id="filter2_d_2014_97" x="128.25" y="52" width="19.2169" height="20.2812" filterUnits="userSpaceOnUse" color-interpolation-filters="sRGB">
<feFlood flood-opacity="0" result="BackgroundImageFix"/>
<feColorMatrix in="SourceAlpha" type="matrix" values="0 0 0 0 0 0 0 0 0 0 0 0 0 0 0 0 0 0 127 0" result="hardAlpha"/>
<feOffset/>
<feGaussianBlur stdDeviation="1"/>
<feComposite in2="hardAlpha" operator="out"/>
<feColorMatrix type="matrix" values="0 0 0 0 1 0 0 0 0 0.683333 0 0 0 0 0 0 0 0 1 0"/>
<feBlend mode="normal" in2="BackgroundImageFix" result="effect1_dropShadow_2014_97"/>
<feBlend mode="normal" in="SourceGraphic" in2="effect1_dropShadow_2014_97" result="shape"/>
</filter>
<filter id="filter3_i_2014_97" x="0" y="24.6614" width="209.178" height="149.325" filterUnits="userSpaceOnUse" color-interpolation-filters="sRGB">
<feFlood flood-opacity="0" result="BackgroundImageFix"/>
<feBlend mode="normal" in="SourceGraphic" in2="BackgroundImageFix" result="shape"/>
<feColorMatrix in="SourceAlpha" type="matrix" values="0 0 0 0 0 0 0 0 0 0 0 0 0 0 0 0 0 0 127 0" result="hardAlpha"/>
<feOffset dy="6"/>
<feGaussianBlur stdDeviation="3"/>
<feComposite in2="hardAlpha" operator="arithmetic" k2="-1" k3="1"/>
<feColorMatrix type="matrix" values="0 0 0 0 0.0850959 0 0 0 0 0 0 0 0 0 0.850962 0 0 0 1 0"/>
<feBlend mode="normal" in2="shape" result="effect1_innerShadow_2014_97"/>
</filter>
<linearGradient id="paint0_linear_2014_97" x1="27.8581" y1="51.5" x2="180.858" y2="142" gradientUnits="userSpaceOnUse">
<stop stop-color="#82FF77"/>
<stop offset="1" stop-color="#FF8800"/>
</linearGradient>
<linearGradient id="paint1_linear_2014_97" x1="84.8581" y1="47.5" x2="75.1554" y2="138.368" gradientUnits="userSpaceOnUse">
<stop stop-color="white"/>
<stop offset="0.514214" stop-color="#7E5AE8"/>
<stop offset="1"/>
</linearGradient>
<linearGradient id="paint2_linear_2014_97" x1="60.3581" y1="85" x2="60.3581" y2="95" gradientUnits="userSpaceOnUse">
<stop stop-color="#FFAE00"/>
<stop offset="1" stop-color="#EEFF00"/>
</linearGradient>
<linearGradient id="paint3_linear_2014_97" x1="47.3581" y1="117" x2="47.3581" y2="132" gradientUnits="userSpaceOnUse">
<stop stop-color="#FFAE00"/>
<stop offset="1" stop-color="#EEFF00"/>
</linearGradient>
<linearGradient id="paint4_linear_2014_97" x1="137.858" y1="54" x2="137.858" y2="72" gradientUnits="userSpaceOnUse">
<stop stop-color="#FF6A00"/>
<stop offset="1"/>
</linearGradient>
<linearGradient id="paint5_linear_2014_97" x1="178.358" y1="63" x2="177.858" y2="63.5" gradientUnits="userSpaceOnUse">
<stop/>
<stop offset="1" stop-color="#666666" stop-opacity="0"/>
</linearGradient>
</defs>
</svg>
