<svg width="256" height="256" viewBox="0 0 256 256" fill="none" xmlns="http://www.w3.org/2000/svg">
<path d="M224 0C241.673 0 256 14.3269 256 32V224C256 241.673 241.673 256 224 256H32C14.3269 256 0 241.673 0 224V32C0 14.3269 14.3269 0 32 0H224Z" fill="url(#paint0_linear_2014_99)"/>
<line x1="105" y1="195" x2="150" y2="195" stroke="black" stroke-width="10" stroke-linecap="round"/>
<g filter="url(#filter0_d_2014_99)">
<path d="M43 90C43 76.1929 54.1929 65 68 65H187C200.807 65 212 76.1929 212 90V149C212 162.807 200.807 174 187 174H68C54.1929 174 43 162.807 43 149V90Z" fill="url(#paint1_linear_2014_99)"/>
<path d="M68 63.125C68 64.375 68 65.625 68 66.875C76.5514 67.0139 85.1029 67.1481 93.6543 67.2778C124.77 67.7494 155.885 68.1598 187 68.5089C198.454 68.3861 208.495 78.7863 208.083 90C207.895 109.667 207.731 129.333 207.592 149C207.763 159.97 197.825 169.692 187 169.347C147.333 169.132 107.667 169.017 68 169.002C65.5127 169.002 63.0507 168.543 60.7503 167.647C53.236 164.805 47.839 157.126 47.8291 149C47.6049 129.333 47.1605 109.667 46.4956 90C46.3357 86.081 47.2507 82.1095 49.1785 78.602C52.7617 71.9537 60.0436 67.2273 68 66.875C68 65.625 68 64.375 68 63.125C58.7843 62.6104 49.2634 67.4095 44.0496 75.4884C41.2514 79.7373 39.6466 84.8319 39.5044 90C38.8395 109.667 38.3951 129.333 38.1709 149C37.8915 161.009 45.8205 172.71 57.1238 176.966C60.5833 178.315 64.3018 179.002 68 178.998C107.667 178.983 147.333 178.868 187 178.653C202.808 178.955 216.884 164.664 216.408 149C216.269 129.333 216.105 109.667 215.917 90C216.152 74.5806 202.179 60.9663 187 61.4911C155.885 61.8402 124.77 62.2506 93.6543 62.7222C85.1029 62.8519 76.5514 62.9861 68 63.125ZM68 66.875V63.125V66.875Z" fill="black"/>
</g>
<path d="M180 75.9999C206.813 81.2394 170.181 132.575 201 172L127 172L126.999 172C89.9994 172 57.9999 172 53.5 166.5C38.8275 148.567 84.1863 105.234 106 102.5C127.814 99.7657 119.914 127.893 139.5 125.5C161.296 122.837 149.651 70.0695 180 75.9999Z" fill="url(#paint2_linear_2014_99)"/>
<g filter="url(#filter1_dd_2014_99)">
<path d="M82.5 109L83.5103 112.455H86.7798L84.1347 114.59L85.145 118.045L82.5 115.91L79.855 118.045L80.8653 114.59L78.2202 112.455H81.4897L82.5 109Z" fill="url(#paint3_linear_2014_99)"/>
</g>
<path d="M70.959 146.183H75.6816L71.8613 149.386L73.3203 154.567L69.5 151.364L65.6797 154.567L67.1387 149.386L63.3184 146.183H68.041L69.5 141L70.959 146.183Z" fill="url(#paint4_linear_2014_99)"/>
<path d="M70.959 146.183H75.6816L71.8613 149.386L73.3203 154.567L69.5 151.364L65.6797 154.567L67.1387 149.386L63.3184 146.183H68.041L69.5 141L70.959 146.183Z" stroke="black"/>
<g filter="url(#filter2_d_2014_99)">
<path d="M160 78L161.796 84.2188H167.608L162.906 88.0623L164.702 94.2812L160 90.4377L155.298 94.2812L157.094 88.0623L152.392 84.2188H158.204L160 78Z" fill="url(#paint5_linear_2014_99)"/>
</g>
<g filter="url(#filter3_i_2014_99)">
<path d="M67 50.125C67 51.375 67 52.625 67 53.875C77.0223 54.0139 87.0446 54.1481 97.0669 54.2778C127.045 54.6655 157.022 55.0118 187 55.3167C206.55 55.07 223.762 72.7904 223.105 92C222.954 110.333 222.818 128.667 222.698 147C223.015 166.018 205.811 182.913 187 182.347C147 182.162 107 182.051 67 182.014C58.1162 182.043 49.3511 178.533 42.9308 172.41C36.0073 165.896 31.9045 156.552 31.854 147C31.6892 128.667 31.385 110.333 30.9414 92C30.624 82.1294 34.5584 72.1271 41.7354 64.9683C48.2669 58.3622 57.4195 54.2538 67 53.875C67 52.625 67 51.375 67 50.125C56.5029 49.6551 45.7136 53.4346 37.6375 60.5858C28.7721 68.2957 23.2522 79.9866 23.0586 92C22.615 110.333 22.3108 128.667 22.146 147C21.9749 159.151 27.1647 171.33 36.0525 179.669C44.2763 187.525 55.6274 192.051 67 191.986C107 191.949 147 191.838 187 191.653C210.802 192.123 232.021 170.595 231.302 147C231.182 128.667 231.046 110.333 230.895 92C231.274 68.5967 210.063 47.8939 187 48.6833C157.022 48.9882 127.045 49.3345 97.0669 49.7222C87.0446 49.8519 77.0223 49.9861 67 50.125ZM67 53.875V50.125V53.875Z" fill="url(#paint6_linear_2014_99)"/>
</g>
<path d="M125.241 174.25C125.997 172.852 128.003 172.852 128.759 174.25L138.393 192.048C139.114 193.381 138.149 195 136.634 195H117.366C115.851 195 114.886 193.381 115.607 192.048L125.241 174.25Z" fill="black"/>
<defs>
<filter id="filter0_d_2014_99" x="34.1638" y="61.4764" width="186.256" height="125.522" filterUnits="userSpaceOnUse" color-interpolation-filters="sRGB">
<feFlood flood-opacity="0" result="BackgroundImageFix"/>
<feColorMatrix in="SourceAlpha" type="matrix" values="0 0 0 0 0 0 0 0 0 0 0 0 0 0 0 0 0 0 127 0" result="hardAlpha"/>
<feOffset dy="4"/>
<feGaussianBlur stdDeviation="2"/>
<feComposite in2="hardAlpha" operator="out"/>
<feColorMatrix type="matrix" values="0 0 0 0 0.519231 0 0 0 0 0.519231 0 0 0 0 0.519231 0 0 0 1 0"/>
<feBlend mode="normal" in2="BackgroundImageFix" result="effect1_dropShadow_2014_99"/>
<feBlend mode="normal" in="SourceGraphic" in2="effect1_dropShadow_2014_99" result="shape"/>
</filter>
<filter id="filter1_dd_2014_99" x="68.2202" y="99" width="28.5595" height="29.045" filterUnits="userSpaceOnUse" color-interpolation-filters="sRGB">
<feFlood flood-opacity="0" result="BackgroundImageFix"/>
<feColorMatrix in="SourceAlpha" type="matrix" values="0 0 0 0 0 0 0 0 0 0 0 0 0 0 0 0 0 0 127 0" result="hardAlpha"/>
<feOffset/>
<feGaussianBlur stdDeviation="1.5"/>
<feComposite in2="hardAlpha" operator="out"/>
<feColorMatrix type="matrix" values="0 0 0 0 0.0302885 0 0 0 0 0.605769 0 0 0 0 0 0 0 0 1 0"/>
<feBlend mode="normal" in2="BackgroundImageFix" result="effect1_dropShadow_2014_99"/>
<feColorMatrix in="SourceAlpha" type="matrix" values="0 0 0 0 0 0 0 0 0 0 0 0 0 0 0 0 0 0 127 0" result="hardAlpha"/>
<feOffset/>
<feGaussianBlur stdDeviation="5"/>
<feComposite in2="hardAlpha" operator="out"/>
<feColorMatrix type="matrix" values="0 0 0 0 0 0 0 0 0 0 0 0 0 0 0 0 0 0 0.5 0"/>
<feBlend mode="normal" in2="effect1_dropShadow_2014_99" result="effect2_dropShadow_2014_99"/>
<feBlend mode="normal" in="SourceGraphic" in2="effect2_dropShadow_2014_99" result="shape"/>
</filter>
<filter id="filter2_d_2014_99" x="150.392" y="76" width="19.2169" height="20.2811" filterUnits="userSpaceOnUse" color-interpolation-filters="sRGB">
<feFlood flood-opacity="0" result="BackgroundImageFix"/>
<feColorMatrix in="SourceAlpha" type="matrix" values="0 0 0 0 0 0 0 0 0 0 0 0 0 0 0 0 0 0 127 0" result="hardAlpha"/>
<feOffset/>
<feGaussianBlur stdDeviation="1"/>
<feComposite in2="hardAlpha" operator="out"/>
<feColorMatrix type="matrix" values="0 0 0 0 1 0 0 0 0 0.683333 0 0 0 0 0 0 0 0 1 0"/>
<feBlend mode="normal" in2="BackgroundImageFix" result="effect1_dropShadow_2014_99"/>
<feBlend mode="normal" in="SourceGraphic" in2="effect1_dropShadow_2014_99" result="shape"/>
</filter>
<filter id="filter3_i_2014_99" x="22.1419" y="48.6614" width="209.178" height="149.325" filterUnits="userSpaceOnUse" color-interpolation-filters="sRGB">
<feFlood flood-opacity="0" result="BackgroundImageFix"/>
<feBlend mode="normal" in="SourceGraphic" in2="BackgroundImageFix" result="shape"/>
<feColorMatrix in="SourceAlpha" type="matrix" values="0 0 0 0 0 0 0 0 0 0 0 0 0 0 0 0 0 0 127 0" result="hardAlpha"/>
<feOffset dy="6"/>
<feGaussianBlur stdDeviation="3"/>
<feComposite in2="hardAlpha" operator="arithmetic" k2="-1" k3="1"/>
<feColorMatrix type="matrix" values="0 0 0 0 0.0850959 0 0 0 0 0 0 0 0 0 0.850962 0 0 0 1 0"/>
<feBlend mode="normal" in2="shape" result="effect1_innerShadow_2014_99"/>
</filter>
<linearGradient id="paint0_linear_2014_99" x1="-27.5" y1="272.5" x2="279" y2="-21" gradientUnits="userSpaceOnUse">
<stop stop-color="#D8D5FF"/>
<stop offset="1" stop-color="#DBFFDE"/>
</linearGradient>
<linearGradient id="paint1_linear_2014_99" x1="50" y1="75.5" x2="203" y2="166" gradientUnits="userSpaceOnUse">
<stop stop-color="#82FF77"/>
<stop offset="1" stop-color="#FF8800"/>
</linearGradient>
<linearGradient id="paint2_linear_2014_99" x1="107" y1="71.5" x2="97.2973" y2="162.368" gradientUnits="userSpaceOnUse">
<stop stop-color="white"/>
<stop offset="0.514214" stop-color="#7E5AE8"/>
<stop offset="1"/>
</linearGradient>
<linearGradient id="paint3_linear_2014_99" x1="82.5" y1="109" x2="82.5" y2="119" gradientUnits="userSpaceOnUse">
<stop stop-color="#FFAE00"/>
<stop offset="1" stop-color="#EEFF00"/>
</linearGradient>
<linearGradient id="paint4_linear_2014_99" x1="69.5" y1="141" x2="69.5" y2="156" gradientUnits="userSpaceOnUse">
<stop stop-color="#FFAE00"/>
<stop offset="1" stop-color="#EEFF00"/>
</linearGradient>
<linearGradient id="paint5_linear_2014_99" x1="160" y1="78" x2="160" y2="96" gradientUnits="userSpaceOnUse">
<stop stop-color="#FF6A00"/>
<stop offset="1"/>
</linearGradient>
<linearGradient id="paint6_linear_2014_99" x1="200.5" y1="87" x2="200" y2="87.5" gradientUnits="userSpaceOnUse">
<stop/>
<stop offset="1" stop-color="#666666" stop-opacity="0"/>
</linearGradient>
</defs>
</svg>
